<?xml version="1.0" encoding="utf-8"?>
<!-- Generator: Adobe Illustrator 16.0.0, SVG Export Plug-In . SVG Version: 6.00 Build 0)  -->
<!DOCTYPE svg PUBLIC "-//W3C//DTD SVG 1.1//EN" "http://www.w3.org/Graphics/SVG/1.1/DTD/svg11.dtd">
<svg version="1.1" id="Layer_1" xmlns="http://www.w3.org/2000/svg" xmlns:xlink="http://www.w3.org/1999/xlink" x="0px" y="0px" width="266.521px" height="130.232px" viewBox="0 0 266.521 130.232" style="enable-background:new 0 0 266.521 130.232;" xml:space="preserve">
    <style type="text/css">
        <![CDATA[ .st0 {
            fill: #AE1B1F;
        }

        .st1 {
            fill: none;
            stroke: #FFFFFF;
            stroke-linecap: square;
            stroke-miterlimit: 10;
        }

        .st2 {
            fill: #BE5641;
        }

        .st3 {
            fill: #FFFFFF;
        }

        .st4 {
            fill: #D0856F;
        }

        ]]>
    </style>
    <g>
    <path class="st3" d="M6.763,124.738c-0.792,0-1.551-0.156-2.277-0.468c-0.727-0.312-1.37-0.762-1.932-1.349
		c-0.555-0.587-0.998-1.303-1.328-2.149s-0.496-1.8-0.496-2.862s0.162-2.025,0.486-2.89s0.773-1.609,1.348-2.234
		c0.566-0.618,1.236-1.096,2.01-1.433s1.6-0.506,2.479-0.506c0.654,0,1.247,0.081,1.777,0.243c0.529,0.163,1.035,0.39,1.515,0.684
		l0.384-0.637h0.748l0.084,4.736h-0.768c-0.1-0.461-0.248-0.962-0.448-1.502c-0.199-0.54-0.433-0.997-0.701-1.372
		c-0.3-0.424-0.654-0.756-1.065-0.997c-0.412-0.24-0.883-0.36-1.412-0.36c-0.604,0-1.167,0.134-1.688,0.403s-0.971,0.666-1.352,1.19
		c-0.361,0.506-0.645,1.149-0.85,1.93c-0.206,0.781-0.309,1.652-0.309,2.614c0,0.849,0.107,1.628,0.322,2.337
		c0.215,0.708,0.521,1.332,0.921,1.869c0.399,0.531,0.871,0.946,1.417,1.246c0.545,0.3,1.154,0.45,1.828,0.45
		c0.504,0,0.969-0.08,1.393-0.239s0.791-0.37,1.104-0.632c0.311-0.275,0.586-0.586,0.822-0.936c0.237-0.35,0.43-0.73,0.58-1.142
		l0.701,0.337c-0.535,1.317-1.246,2.257-2.132,2.822C9.038,124.455,7.985,124.738,6.763,124.738z" />
    <path class="st3" d="M33.347,112.709c0.587,0.611,1.045,1.35,1.377,2.214c0.33,0.864,0.496,1.82,0.496,2.869
		c0,1.055-0.169,2.013-0.506,2.874c-0.337,0.861-0.805,1.594-1.404,2.2c-0.58,0.599-1.254,1.061-2.021,1.385
		s-1.586,0.487-2.453,0.487c-0.924,0-1.777-0.173-2.56-0.52c-0.783-0.346-1.456-0.829-2.017-1.446
		c-0.562-0.605-1.004-1.34-1.325-2.205c-0.321-0.864-0.481-1.789-0.481-2.775c0-1.08,0.168-2.042,0.505-2.888
		c0.337-0.845,0.802-1.577,1.395-2.195c0.587-0.612,1.269-1.08,2.046-1.404c0.776-0.324,1.59-0.487,2.438-0.487
		c0.881,0,1.71,0.166,2.49,0.496C32.105,111.646,32.779,112.11,33.347,112.709z M31.952,122.126c0.35-0.568,0.604-1.21,0.764-1.928
		c0.158-0.717,0.238-1.52,0.238-2.406c0-0.911-0.089-1.747-0.268-2.508c-0.178-0.761-0.438-1.41-0.781-1.947
		c-0.343-0.53-0.773-0.944-1.291-1.24c-0.519-0.296-1.111-0.444-1.779-0.444c-0.748,0-1.385,0.171-1.909,0.515
		s-0.952,0.802-1.282,1.376c-0.312,0.549-0.545,1.192-0.697,1.928c-0.153,0.736-0.229,1.51-0.229,2.321
		c0,0.899,0.081,1.71,0.243,2.434c0.162,0.724,0.418,1.367,0.768,1.928c0.337,0.549,0.762,0.978,1.273,1.287
		c0.512,0.309,1.123,0.463,1.834,0.463c0.668,0,1.27-0.156,1.807-0.468S31.615,122.688,31.952,122.126z" />
    <path class="st3" d="M59.64,111.801c-0.175,0.006-0.443,0.056-0.805,0.15c-0.362,0.094-0.621,0.19-0.777,0.29
		c-0.225,0.156-0.376,0.456-0.454,0.899c-0.078,0.443-0.116,1.004-0.116,1.685v9.726h-0.814l-8.051-10.867v6.852
		c0,0.768,0.049,1.357,0.145,1.769c0.098,0.412,0.246,0.706,0.445,0.88c0.144,0.137,0.439,0.265,0.889,0.383
		c0.449,0.119,0.746,0.181,0.89,0.188v0.665h-5.448v-0.665c0.169-0.013,0.453-0.073,0.853-0.183
		c0.399-0.109,0.649-0.208,0.749-0.295c0.219-0.174,0.367-0.441,0.449-0.8c0.08-0.359,0.121-0.972,0.121-1.839v-6.543
		c0-0.287-0.05-0.574-0.149-0.861c-0.101-0.287-0.233-0.508-0.402-0.665c-0.225-0.206-0.528-0.382-0.913-0.529
		c-0.383-0.146-0.693-0.226-0.932-0.239v-0.665h3.795l7.467,10.126v-6.317c0-0.773-0.051-1.368-0.15-1.783s-0.243-0.691-0.43-0.828
		c-0.176-0.119-0.461-0.234-0.857-0.346s-0.697-0.175-0.903-0.188v-0.665h5.401V111.801z" />
    <path class="st3" d="M78.49,118.326c0.28,0.312,0.488,0.654,0.622,1.025c0.135,0.372,0.201,0.804,0.201,1.296
		c0,1.173-0.434,2.141-1.301,2.902c-0.867,0.762-1.943,1.142-3.229,1.142c-0.594,0-1.187-0.092-1.779-0.276
		c-0.593-0.184-1.104-0.407-1.535-0.669l-0.402,0.683h-0.749l-0.131-4.549h0.759c0.155,0.562,0.338,1.069,0.547,1.521
		c0.209,0.452,0.485,0.875,0.828,1.268c0.324,0.368,0.704,0.662,1.138,0.88c0.434,0.219,0.938,0.328,1.512,0.328
		c0.431,0,0.807-0.056,1.128-0.168c0.321-0.113,0.582-0.272,0.781-0.478c0.2-0.207,0.348-0.449,0.445-0.727
		c0.096-0.278,0.145-0.599,0.145-0.961c0-0.531-0.149-1.026-0.449-1.485c-0.299-0.459-0.746-0.808-1.338-1.045
		c-0.406-0.161-0.871-0.34-1.395-0.536c-0.525-0.196-0.978-0.381-1.357-0.555c-0.75-0.337-1.332-0.778-1.746-1.324
		c-0.415-0.546-0.623-1.259-0.623-2.138c0-0.505,0.104-0.977,0.309-1.413c0.207-0.437,0.5-0.827,0.881-1.17
		c0.361-0.324,0.789-0.579,1.282-0.763s1.008-0.276,1.544-0.276c0.611,0,1.16,0.093,1.643,0.281
		c0.484,0.187,0.926,0.406,1.325,0.655l0.384-0.637h0.749l0.075,4.409h-0.759c-0.138-0.505-0.292-0.989-0.464-1.451
		c-0.171-0.462-0.395-0.88-0.668-1.254c-0.27-0.362-0.597-0.65-0.983-0.866c-0.388-0.215-0.861-0.323-1.423-0.323
		c-0.594,0-1.099,0.19-1.517,0.571c-0.418,0.381-0.627,0.846-0.627,1.395c0,0.574,0.134,1.05,0.402,1.428s0.658,0.688,1.17,0.931
		c0.456,0.219,0.903,0.407,1.343,0.566c0.44,0.159,0.867,0.329,1.278,0.51c0.374,0.162,0.735,0.346,1.081,0.552
		C77.934,117.811,78.234,118.051,78.49,118.326z" />
    <path class="st3" d="M101.521,114.741h-0.646c-0.057-0.225-0.158-0.492-0.306-0.8c-0.146-0.309-0.311-0.601-0.492-0.875
		c-0.188-0.287-0.393-0.538-0.614-0.753s-0.437-0.338-0.643-0.37c-0.194-0.025-0.438-0.043-0.731-0.056
		c-0.295-0.013-0.566-0.019-0.816-0.019h-0.545v10.625c0,0.206,0.044,0.395,0.131,0.566c0.088,0.171,0.24,0.304,0.459,0.397
		c0.113,0.044,0.348,0.103,0.707,0.178c0.359,0.075,0.639,0.115,0.838,0.122v0.665h-6.271v-0.665
		c0.174-0.013,0.441-0.038,0.801-0.075c0.358-0.038,0.606-0.084,0.744-0.141c0.205-0.081,0.356-0.198,0.453-0.351
		c0.098-0.153,0.146-0.357,0.146-0.613v-10.708h-0.543c-0.193,0-0.435,0.005-0.721,0.014c-0.287,0.009-0.562,0.03-0.823,0.061
		c-0.207,0.025-0.42,0.148-0.642,0.37c-0.222,0.222-0.427,0.473-0.613,0.753s-0.353,0.579-0.496,0.894
		c-0.144,0.315-0.243,0.576-0.3,0.782h-0.654v-3.604h11.578V114.741z" />
    <path class="st3" d="M125.138,124.419h-3.576c-0.792-1.242-1.508-2.315-2.146-3.22c-0.639-0.905-1.332-1.837-2.08-2.799h-1.361
		v4.212c0,0.219,0.035,0.411,0.104,0.576c0.068,0.166,0.215,0.292,0.439,0.379c0.113,0.044,0.31,0.084,0.59,0.122
		c0.281,0.037,0.519,0.059,0.712,0.065v0.665h-5.616v-0.665c0.149-0.013,0.366-0.034,0.65-0.065
		c0.283-0.031,0.482-0.072,0.594-0.122c0.188-0.081,0.324-0.199,0.408-0.355c0.084-0.156,0.126-0.355,0.126-0.599v-9.604
		c0-0.218-0.031-0.412-0.094-0.58s-0.209-0.296-0.44-0.384c-0.155-0.056-0.358-0.108-0.607-0.155
		c-0.25-0.046-0.463-0.076-0.637-0.089v-0.665h6.131c0.562,0,1.089,0.058,1.582,0.173s0.939,0.301,1.338,0.557
		c0.388,0.25,0.696,0.576,0.928,0.979c0.23,0.402,0.346,0.888,0.346,1.456c0,0.512-0.078,0.964-0.234,1.357
		c-0.155,0.394-0.387,0.733-0.691,1.021c-0.281,0.269-0.618,0.501-1.012,0.697c-0.393,0.197-0.826,0.364-1.301,0.501
		c0.655,0.867,1.199,1.598,1.633,2.19s0.966,1.313,1.596,2.162c0.275,0.375,0.523,0.65,0.745,0.829
		c0.222,0.178,0.441,0.323,0.659,0.435c0.162,0.081,0.365,0.144,0.609,0.188c0.243,0.043,0.445,0.068,0.607,0.075V124.419z
		 M120.215,114.521c0-0.804-0.231-1.441-0.692-1.911c-0.463-0.47-1.114-0.706-1.957-0.706h-1.592v5.691h1.227
		c0.861,0,1.579-0.276,2.153-0.827S120.215,115.468,120.215,114.521z" />
    <path class="st3" d="M148.518,111.801c-0.175,0.006-0.431,0.044-0.768,0.112c-0.337,0.069-0.611,0.172-0.823,0.309
		c-0.213,0.144-0.359,0.44-0.44,0.889s-0.122,0.999-0.122,1.647v5.775c0,0.736-0.152,1.376-0.458,1.919s-0.708,0.989-1.208,1.339
		c-0.492,0.337-1.012,0.579-1.559,0.725c-0.546,0.146-1.068,0.22-1.567,0.22c-0.799,0-1.511-0.104-2.134-0.313
		c-0.625-0.209-1.148-0.492-1.573-0.847c-0.418-0.356-0.733-0.763-0.945-1.222s-0.318-0.938-0.318-1.437v-7.854
		c0-0.218-0.036-0.401-0.107-0.547s-0.217-0.282-0.436-0.407c-0.155-0.087-0.355-0.158-0.599-0.21
		c-0.244-0.053-0.443-0.086-0.6-0.099v-0.665h5.532v0.665c-0.175,0.006-0.395,0.035-0.659,0.084c-0.266,0.05-0.461,0.097-0.586,0.14
		c-0.212,0.075-0.354,0.2-0.426,0.374c-0.072,0.175-0.107,0.365-0.107,0.571v7.333c0,0.355,0.039,0.729,0.117,1.118
		c0.078,0.39,0.232,0.753,0.463,1.09c0.244,0.343,0.574,0.624,0.992,0.842s0.992,0.328,1.723,0.328c0.687,0,1.262-0.109,1.727-0.328
		s0.832-0.505,1.1-0.86c0.256-0.337,0.438-0.689,0.543-1.057c0.106-0.368,0.16-0.739,0.16-1.113v-5.444
		c0-0.692-0.051-1.258-0.15-1.697c-0.1-0.44-0.246-0.728-0.439-0.865c-0.219-0.156-0.517-0.277-0.895-0.365
		c-0.377-0.087-0.666-0.137-0.865-0.15v-0.665h5.429V111.801z" />
    <path class="st3" d="M165.054,124.738c-0.792,0-1.551-0.156-2.277-0.468c-0.727-0.312-1.37-0.762-1.932-1.349
		c-0.555-0.587-0.998-1.303-1.328-2.149s-0.496-1.8-0.496-2.862s0.162-2.025,0.486-2.89s0.773-1.609,1.348-2.234
		c0.566-0.618,1.236-1.096,2.01-1.433s1.6-0.506,2.479-0.506c0.654,0,1.247,0.081,1.777,0.243c0.529,0.163,1.035,0.39,1.515,0.684
		l0.384-0.637h0.748l0.084,4.736h-0.768c-0.1-0.461-0.248-0.962-0.448-1.502c-0.199-0.54-0.433-0.997-0.701-1.372
		c-0.3-0.424-0.654-0.756-1.065-0.997c-0.412-0.24-0.883-0.36-1.412-0.36c-0.604,0-1.167,0.134-1.688,0.403s-0.971,0.666-1.352,1.19
		c-0.361,0.506-0.645,1.149-0.85,1.93c-0.206,0.781-0.309,1.652-0.309,2.614c0,0.849,0.107,1.628,0.322,2.337
		c0.215,0.708,0.521,1.332,0.921,1.869c0.399,0.531,0.871,0.946,1.417,1.246c0.545,0.3,1.154,0.45,1.828,0.45
		c0.504,0,0.969-0.08,1.393-0.239s0.791-0.37,1.104-0.632c0.311-0.275,0.586-0.586,0.822-0.936c0.237-0.35,0.43-0.73,0.58-1.142
		l0.701,0.337c-0.535,1.317-1.246,2.257-2.132,2.822C167.329,124.455,166.276,124.738,165.054,124.738z" />
    <path class="st3" d="M192.02,114.741h-0.646c-0.057-0.225-0.158-0.492-0.305-0.8c-0.147-0.309-0.312-0.601-0.492-0.875
		c-0.188-0.287-0.393-0.538-0.615-0.753s-0.437-0.338-0.643-0.37c-0.193-0.025-0.438-0.043-0.732-0.056
		c-0.293-0.013-0.565-0.019-0.816-0.019h-0.543v10.625c0,0.206,0.043,0.395,0.131,0.566c0.087,0.171,0.24,0.304,0.459,0.397
		c0.111,0.044,0.348,0.103,0.706,0.178c0.358,0.075,0.638,0.115,0.838,0.122v0.665h-6.271v-0.665c0.175-0.013,0.441-0.038,0.8-0.075
		c0.359-0.038,0.607-0.084,0.744-0.141c0.207-0.081,0.357-0.198,0.455-0.351c0.096-0.153,0.145-0.357,0.145-0.613v-10.708h-0.543
		c-0.193,0-0.434,0.005-0.721,0.014s-0.562,0.03-0.824,0.061c-0.205,0.025-0.42,0.148-0.641,0.37
		c-0.222,0.222-0.426,0.473-0.613,0.753s-0.353,0.579-0.496,0.894c-0.144,0.315-0.243,0.576-0.3,0.782h-0.655v-3.604h11.579V114.741
		z" />
    <path class="st3" d="M208.542,124.419h-5.98v-0.665c0.168-0.013,0.412-0.031,0.73-0.056s0.543-0.062,0.674-0.112
		c0.205-0.081,0.355-0.192,0.449-0.333c0.094-0.14,0.141-0.335,0.141-0.585v-9.623c0-0.218-0.035-0.401-0.104-0.548
		c-0.068-0.146-0.23-0.27-0.486-0.37c-0.188-0.075-0.424-0.145-0.707-0.21c-0.284-0.065-0.517-0.104-0.697-0.117v-0.665h5.98v0.665
		c-0.193,0.006-0.424,0.03-0.691,0.07c-0.27,0.041-0.503,0.092-0.703,0.154c-0.236,0.075-0.396,0.197-0.477,0.365
		c-0.082,0.168-0.122,0.355-0.122,0.562v9.613c0,0.206,0.046,0.389,0.136,0.548s0.244,0.285,0.463,0.379
		c0.131,0.05,0.346,0.104,0.642,0.164c0.296,0.059,0.548,0.092,0.753,0.098V124.419z" />
    <path class="st3" d="M230.329,112.709c0.588,0.611,1.045,1.35,1.377,2.214c0.33,0.864,0.496,1.82,0.496,2.869
		c0,1.055-0.168,2.013-0.506,2.874c-0.338,0.861-0.805,1.594-1.404,2.2c-0.58,0.599-1.254,1.061-2.021,1.385
		s-1.586,0.487-2.453,0.487c-0.924,0-1.777-0.173-2.561-0.52s-1.455-0.829-2.016-1.446c-0.562-0.605-1.004-1.34-1.326-2.205
		c-0.32-0.864-0.48-1.789-0.48-2.775c0-1.08,0.168-2.042,0.504-2.888c0.338-0.845,0.803-1.577,1.396-2.195
		c0.586-0.612,1.268-1.08,2.045-1.404c0.777-0.324,1.59-0.487,2.438-0.487c0.881,0,1.711,0.166,2.49,0.496
		C229.087,111.646,229.761,112.11,230.329,112.709z M228.935,122.126c0.35-0.568,0.604-1.21,0.764-1.928
		c0.158-0.717,0.238-1.52,0.238-2.406c0-0.911-0.09-1.747-0.268-2.508s-0.438-1.41-0.781-1.947c-0.344-0.53-0.773-0.944-1.291-1.24
		s-1.111-0.444-1.779-0.444c-0.748,0-1.385,0.171-1.908,0.515c-0.525,0.343-0.953,0.802-1.283,1.376
		c-0.312,0.549-0.545,1.192-0.697,1.928s-0.23,1.51-0.23,2.321c0,0.899,0.082,1.71,0.244,2.434c0.162,0.724,0.418,1.367,0.768,1.928
		c0.338,0.549,0.762,0.978,1.273,1.287c0.512,0.309,1.123,0.463,1.834,0.463c0.668,0,1.27-0.156,1.807-0.468
		S228.599,122.688,228.935,122.126z" />
    <path class="st3" d="M256.774,111.801c-0.174,0.006-0.441,0.056-0.805,0.15c-0.361,0.094-0.621,0.19-0.775,0.29
		c-0.227,0.156-0.377,0.456-0.455,0.899c-0.078,0.443-0.117,1.004-0.117,1.685v9.726h-0.814l-8.049-10.867v6.852
		c0,0.768,0.047,1.357,0.145,1.769c0.096,0.412,0.244,0.706,0.443,0.88c0.145,0.137,0.441,0.265,0.891,0.383
		c0.449,0.119,0.746,0.181,0.889,0.188v0.665h-5.447v-0.665c0.168-0.013,0.451-0.073,0.852-0.183
		c0.398-0.109,0.648-0.208,0.748-0.295c0.219-0.174,0.369-0.441,0.449-0.8c0.082-0.359,0.123-0.972,0.123-1.839v-6.543
		c0-0.287-0.051-0.574-0.15-0.861c-0.1-0.287-0.234-0.508-0.402-0.665c-0.225-0.206-0.529-0.382-0.912-0.529
		c-0.385-0.146-0.695-0.226-0.932-0.239v-0.665h3.795l7.465,10.126v-6.317c0-0.773-0.049-1.368-0.148-1.783
		c-0.102-0.415-0.244-0.691-0.432-0.828c-0.174-0.119-0.461-0.234-0.855-0.346c-0.396-0.112-0.697-0.175-0.904-0.188v-0.665h5.4
		V111.801z" />
    </g>
    <path class="st1" d="M103.835,53.513" />
    <g>
        <polygon class="st3" points="1.284,87.979 22.968,97.432 22.968,46.984 1.284,67.637 	" />
        <polygon class="st3" points="27.063,43.083 27.064,97.432 48.748,87.978 48.748,22.429 	" />
        <g>
            <polygon class="st2" points="27.097,27.099 47.684,20.807 27.097,14.515 		" />
            <polygon class="st0" points="47.947,21.772 27.097,28.145 27.097,41.614 		" />
            <polygon class="st4" points="47.947,19.842 27.097,0 27.097,13.469 		" />
        </g>
    </g>
    <g>
    <path class="st3" d="M86.802,66.05c-0.564,0.071-1.043,0.141-1.438,0.212c-0.396,0.071-0.84,0.169-1.333,0.296
		c-0.578,0.155-0.948,0.431-1.11,0.826s-0.243,0.846-0.243,1.354v16.549c0,1.524-0.307,2.921-0.92,4.191
		c-0.613,1.27-1.456,2.334-2.526,3.195c-1.086,0.846-2.299,1.485-3.639,1.915c-1.339,0.43-2.77,0.646-4.293,0.646
		c-2.636,0-4.762-0.634-6.375-1.903c-1.615-1.269-2.422-3.01-2.422-5.223c0-1.312,0.37-2.397,1.11-3.257s1.759-1.29,3.056-1.29
		c1.227,0,2.203,0.359,2.93,1.079c0.726,0.719,1.088,1.607,1.088,2.665c0,0.902-0.313,1.738-0.94,2.506
		c-0.628,0.769-1.343,1.477-2.146,2.125v0.275c0.128,0.282,0.403,0.521,0.827,0.719c0.424,0.198,0.855,0.296,1.293,0.296
		c1.697,0,3.029-0.607,3.998-1.82s1.453-3.047,1.453-5.502V68.949c0-0.508-0.078-0.931-0.234-1.27s-0.531-0.635-1.126-0.889
		c-0.425-0.183-0.938-0.338-1.54-0.465c-0.603-0.127-1.102-0.219-1.498-0.275V64.4h16.029V66.05z" />
    <path class="st3" d="M121.3,94.409h-16.348v-1.649c0.76-0.056,1.653-0.194,2.681-0.413c1.026-0.218,1.54-0.49,1.54-0.814
		c0-0.113-0.01-0.24-0.031-0.381c-0.021-0.141-0.081-0.331-0.18-0.571l-2.561-6.217H96.042c-0.238,0.578-0.502,1.255-0.789,2.03
		c-0.287,0.776-0.535,1.467-0.746,2.073c-0.266,0.79-0.424,1.361-0.473,1.713c-0.051,0.353-0.074,0.6-0.074,0.74
		c0,0.451,0.341,0.835,1.024,1.152c0.683,0.317,1.82,0.547,3.412,0.688v1.649H86.089v-1.649c0.465-0.028,0.99-0.102,1.575-0.222
		c0.585-0.12,1.047-0.286,1.386-0.497c0.578-0.338,1.067-0.754,1.469-1.248c0.402-0.493,0.737-1.079,1.005-1.755
		c1.636-3.961,3.274-7.93,4.917-11.906c1.643-3.976,3.457-8.36,5.445-13.154h4.229c2.763,6.795,4.928,12.167,6.493,16.114
		c1.564,3.948,2.896,7.219,3.996,9.812c0.184,0.423,0.416,0.807,0.697,1.152c0.283,0.346,0.685,0.673,1.206,0.983
		c0.395,0.226,0.853,0.395,1.374,0.508s0.994,0.183,1.418,0.211V94.409z M105.53,82.27l-4.343-10.847L96.908,82.27H105.53z" />
    <path class="st3" d="M137.059,95.233c-1.833,0-3.542-0.229-5.128-0.687c-1.586-0.458-2.93-0.998-4.029-1.618l-1.459,1.48h-1.797
		L124.37,83.56h1.818c0.409,1.032,0.931,2.119,1.564,3.264c0.635,1.145,1.368,2.169,2.2,3.073c0.86,0.947,1.821,1.716,2.887,2.31
		c1.063,0.593,2.308,0.89,3.732,0.89c1.917,0,3.387-0.469,4.409-1.407c1.021-0.938,1.533-2.12,1.533-3.546
		c0-1.171-0.434-2.155-1.301-2.952c-0.867-0.797-2.21-1.486-4.028-2.067c-1.185-0.382-2.273-0.736-3.268-1.062
		c-0.993-0.326-1.928-0.659-2.802-0.999c-2.017-0.805-3.514-1.956-4.494-3.452s-1.47-3.168-1.47-5.018
		c0-1.172,0.254-2.297,0.761-3.377c0.508-1.08,1.248-2.05,2.221-2.911c0.932-0.805,2.122-1.461,3.574-1.969s3.031-0.762,4.737-0.762
		c1.663,0,3.222,0.232,4.674,0.698s2.594,0.931,3.426,1.396l1.29-1.269h1.84l0.169,10.235h-1.819
		c-0.422-1.103-0.92-2.229-1.49-3.381s-1.174-2.109-1.809-2.873c-0.69-0.819-1.487-1.473-2.389-1.961
		c-0.902-0.487-1.961-0.731-3.172-0.731c-1.523,0-2.768,0.431-3.733,1.292c-0.966,0.862-1.448,1.928-1.448,3.198
		c0,1.201,0.419,2.182,1.258,2.945s2.146,1.433,3.924,2.012c1.043,0.353,2.107,0.706,3.192,1.059s2.052,0.692,2.897,1.017
		c2.044,0.791,3.598,1.881,4.663,3.272c1.063,1.39,1.597,3.116,1.597,5.177c0,1.299-0.304,2.555-0.91,3.77
		c-0.605,1.214-1.424,2.223-2.453,3.028c-1.127,0.89-2.432,1.574-3.912,2.054C140.759,94.993,139.032,95.233,137.059,95.233z" />
    <path class="st3" d="M183.522,71.908c0,1.692-0.35,3.147-1.047,4.367c-0.697,1.219-1.66,2.209-2.887,2.971
		c-1.269,0.79-2.717,1.36-4.346,1.713s-3.457,0.528-5.488,0.528h-2.453v8.438c0,0.508,0.096,0.948,0.286,1.322
		s0.554,0.673,1.089,0.899c0.281,0.113,0.74,0.232,1.375,0.359s1.17,0.211,1.607,0.254v1.649h-16.264v-1.649
		c0.41-0.042,0.952-0.102,1.629-0.18s1.148-0.173,1.417-0.286c0.55-0.226,0.913-0.5,1.089-0.825s0.265-0.775,0.265-1.354V68.947
		c0-0.494-0.085-0.92-0.254-1.28c-0.169-0.359-0.536-0.659-1.1-0.898c-0.396-0.169-0.92-0.321-1.575-0.455
		c-0.656-0.134-1.146-0.222-1.471-0.264V64.4h16.559c3.877,0,6.775,0.617,8.692,1.85C182.563,67.484,183.522,69.37,183.522,71.908z
		 M175.274,72.986c0-2.256-0.454-3.93-1.363-5.022c-0.91-1.093-2.527-1.639-4.854-1.639h-1.756V79.5h0.889
		c2.312,0,4.07-0.532,5.276-1.597C174.673,76.839,175.274,75.2,175.274,72.986z" />
    <path class="st3" d="M214.837,72.056h-1.607c-0.41-1.138-1.114-2.29-2.115-3.455c-1.001-1.166-1.995-1.854-2.982-2.065
		c-0.422-0.099-1.012-0.158-1.766-0.179s-1.378-0.032-1.871-0.032h-4.356v11.568h3.087c0.775,0,1.48-0.092,2.115-0.275
		s1.213-0.536,1.734-1.058c0.324-0.324,0.652-0.895,0.983-1.713c0.331-0.817,0.546-1.529,0.646-2.136h1.606V85.23h-1.606
		c-0.086-0.592-0.301-1.335-0.646-2.231c-0.346-0.895-0.673-1.512-0.983-1.85c-0.465-0.508-1.016-0.857-1.649-1.047
		c-0.635-0.19-1.368-0.286-2.2-0.286h-3.087v8.649c0,0.902,0.067,1.618,0.2,2.146c0.135,0.529,0.385,0.934,0.752,1.216
		c0.352,0.268,0.835,0.444,1.448,0.529s1.448,0.127,2.506,0.127c0.493,0,1.085-0.007,1.776-0.021
		c0.69-0.014,1.297-0.056,1.818-0.126c0.592-0.071,1.146-0.176,1.66-0.317c0.515-0.141,0.898-0.345,1.152-0.613
		c0.678-0.69,1.438-1.745,2.284-3.162c0.847-1.417,1.403-2.478,1.671-3.183h1.545l-0.572,9.347h-28.147v-1.649
		c0.395-0.028,0.931-0.084,1.607-0.169c0.677-0.084,1.155-0.183,1.438-0.296c0.535-0.226,0.895-0.511,1.078-0.856
		c0.184-0.345,0.275-0.786,0.275-1.322V68.947c0-0.508-0.078-0.927-0.232-1.258c-0.156-0.331-0.529-0.631-1.121-0.899
		c-0.367-0.169-0.882-0.324-1.545-0.465c-0.662-0.141-1.162-0.232-1.501-0.275V64.4h26.604V72.056z" />
    <path class="st3" d="M256.905,94.409H245.39c-1.986-3.045-3.639-5.47-4.955-7.275c-1.318-1.804-2.955-3.891-4.914-6.26h-1.158
		v9.115c0,0.508,0.094,0.938,0.285,1.29c0.189,0.353,0.553,0.648,1.09,0.888c0.268,0.113,0.686,0.229,1.258,0.349
		c0.57,0.12,1.061,0.201,1.469,0.243v1.649h-16.008v-1.649c0.408-0.042,0.947-0.102,1.617-0.18s1.146-0.173,1.428-0.286
		c0.535-0.226,0.895-0.511,1.078-0.856c0.184-0.345,0.275-0.786,0.275-1.322V68.947c0-0.508-0.078-0.931-0.232-1.269
		c-0.156-0.338-0.529-0.634-1.121-0.888c-0.451-0.183-0.982-0.338-1.596-0.465s-1.098-0.218-1.449-0.275V64.4h16.834
		c3.764,0,6.621,0.589,8.574,1.766c1.953,1.177,2.93,2.958,2.93,5.34c0,2.101-0.604,3.789-1.809,5.065s-3.041,2.273-5.51,2.992
		c0.959,1.241,2.076,2.679,3.354,4.314c1.275,1.635,2.604,3.306,3.986,5.012c0.436,0.55,1.031,1.223,1.787,2.02
		c0.754,0.797,1.42,1.287,1.998,1.47c0.324,0.099,0.736,0.184,1.236,0.254c0.5,0.071,0.857,0.113,1.068,0.127V94.409z
		 M242.503,72.098c0-2.002-0.561-3.465-1.68-4.388c-1.121-0.923-2.719-1.385-4.791-1.385h-1.67v12.562h1.607
		c2.072,0,3.68-0.542,4.82-1.628C241.933,76.172,242.503,74.453,242.503,72.098z" />
    </g>
</svg>
